<svg
  xmlns="http://www.w3.org/2000/svg"
  xmlns:xlink="http://www.w3.org/1999/xlink"
  viewBox="0 0 300 300"
  width="300"
  height="300"
>
  <!-- Background -->
  <rect width="300" height="300" fill="#a8dadc" />

  <!-- Branch -->
  <path
    d="M50 240 C80 230, 220 230, 250 240 L250 260 C220 250, 80 250, 50 260 Z"
    fill="#6B4F4F"
    stroke="#4F3433"
    stroke-width="3"
  />
  <!-- Branch details -->
  <line x1="80" y1="245" x2="100" y2="250" stroke="#4F3433" stroke-width="2" />
  <line x1="150" y1="245" x2="170" y2="250" stroke="#4F3433" stroke-width="2" />

  <!-- Toucan's body -->
  <ellipse cx="150" cy="180" rx="50" ry="70" fill="#000000" />
  
  <!-- Toucan's belly -->
  <ellipse cx="150" cy="190" rx="40" ry="60" fill="#FFFFFF" />
  
  <!-- Body shadow -->
  <ellipse cx="150" cy="185" rx="48" ry="68" fill="rgba(0, 0, 0, 0.2)" />

  <!-- Toucan's head -->
  <circle cx="150" cy="110" r="40" fill="#000000" />

  <!-- Toucan's eye -->
  <circle cx="165" cy="100" r="12" fill="#FFFFFF" />
  <circle cx="165" cy="100" r="6" fill="#000000" />
  <circle cx="167" cy="98" r="2" fill="#FFFFFF" />

  <!-- Toucan's beak -->
  <path
    d="M150 90 Q260 40, 240 110 Q260 180, 150 140 Z"
    fill="#FFAA00"
    stroke="#000000"
    stroke-width="3"
  />
  
  <!-- Beak tip -->
  <path
    d="M240 110 Q260 90, 255 130 Q260 150, 240 170 Z"
    fill="#FF4444"
    stroke="#000000"
    stroke-width="2"
  />

  <!-- Beak highlight -->
  <path
    d="M160 85 Q200 70, 230 110 Q210 140, 160 120 Z"
    fill="#FFD580"
    opacity="0.6"
  />
  
  <!-- Neck feathers -->
  <path
    d="M150 120 C130 140, 120 170, 130 190 C140 200, 160 200, 170 190 C180 180, 170 140, 150 120 Z"
    fill="#000000"
  />

  <!-- Toucan's feet -->
  <ellipse cx="130" cy="240" rx="8" ry="15" fill="#FFAA00" />
  <ellipse cx="170" cy="240" rx="8" ry="15" fill="#FFAA00" />

  <!-- Branch shadow -->
  <path
    d="M50 250 C80 240, 220 240, 250 250 L250 260 C220 255, 80 255, 50 260 Z"
    fill="rgba(0, 0, 0, 0.2)"
  />
</svg>
